<?xml version="1.0" standalone="no"?>
<!DOCTYPE svg PUBLIC "-//W3C//DTD SVG 1.1//EN" "http://www.w3.org/Graphics/SVG/1.1/DTD/svg11.dtd" >
<svg>
<metadata>
Created by FontForge 20120731 at Sat Mar 11 04:39:14 2023
 By www
Copyright (c) 2019 by Nikolas Wrobel, B.A..
</metadata>
<defs>
<font id="CosiAzure-Ultra" horiz-adv-x="600" >
  <font-face 
    font-family="Cosi Azure Ultra"
    font-weight="400"
    font-stretch="expanded"
    units-per-em="1000"
    panose-1="0 0 5 5 0 0 0 0 0 0"
    ascent="800"
    descent="-200"
    x-height="700"
    cap-height="700"
    bbox="-65 -216.051 1749 898"
    underline-thickness="50"
    underline-position="-100"
    unicode-range="U+0020-2265"
  />
<missing-glyph horiz-adv-x="72" 
 />
    <glyph glyph-name=".notdef" horiz-adv-x="72" 
 />
    <glyph glyph-name=".null" horiz-adv-x="0" 
 />
    <glyph glyph-name="nonmarkingreturn" horiz-adv-x="333" 
 />
    <glyph glyph-name="space" unicode=" " horiz-adv-x="240" 
 />
    <glyph glyph-name="exclam" unicode="!" horiz-adv-x="236" 
d="M43 642q-6 29 20.5 45.5t55.5 16.5q28 0 52 -15.5t24 -46.5q0 -15 -13 -87.5t-33 -180.5t-30 -175zM119 -12q-29 0 -49 20t-20 49q0 27 20.5 47t48.5 20q26 0 46.5 -20.5t20.5 -46.5q0 -28 -20 -48.5t-47 -20.5z" />
    <glyph glyph-name="quotedbl" unicode="&#x22;" horiz-adv-x="388" 
d="M33 662q0 25 20 45t47 20q25 0 45 -20t20 -45q0 -20 -10 -34q-19 -26 -33 -67.5t-19 -70.5l-5 -29q-12 103 -56 165q-9 18 -9 36zM223 662q0 25 20 45t47 20q25 0 45 -20t20 -45q0 -20 -10 -34q-19 -26 -33 -67.5t-19 -70.5l-5 -29q-12 103 -56 165q-9 18 -9 36z" />
    <glyph glyph-name="numbersign" unicode="#" horiz-adv-x="752" 
d="M459 262h215l-2 -8h-215l-64 -228h-8l64 228h-202l-64 -228h-8l64 228h-219l2 8h219l55 196h-219l3 8h219l59 212h8l-59 -212h202l59 212h8l-59 -212h215l-3 -8h-215zM304 458l-55 -196h202l55 196h-202z" />
    <glyph glyph-name="dollar" unicode="$" horiz-adv-x="689" 
d="M56 520q0 66 46 112.5t113 65.5t145 16v70h9v-70q128 -8 202 -66v-227q-57 192 -202 253v-300l41 -13q8 -2 21 -7t49 -21.5t65 -36t58.5 -51.5t42 -67.5t3 -84t-48.5 -100.5q-2 52 -21 93t-54 70.5t-70 48.5t-86 40v-326h-9v329q-14 6 -43.5 17.5t-44.5 17.5t-41.5 17.5
t-41 20t-35.5 22t-33 25.5t-26.5 29t-21.5 35t-12 40.5t-5 47.5zM360 678q-97 37 -181 2q-67 -28 -75 -82q-12 -76 99 -148q62 -40 157 -73v301zM266 0h-145v181z" />
    <glyph glyph-name="percent" unicode="%" horiz-adv-x="691" 
d="M57 -12l-9 7l585 716l9 -8zM303 661q51 -43 54 -111.5t-44 -122.5q-47 -53 -116.5 -60t-120.5 37q-51 43 -53.5 112t44.5 122t116.5 60t119.5 -37zM258 486q107 119 43 172q-62 53 -182 -64q-52 -50 -64.5 -99.5t23.5 -83.5q64 -55 180 75zM615 294q51 -43 53.5 -112
t-44.5 -122t-116.5 -60t-120.5 36q-50 44 -53 112.5t44 121.5q47 54 116.5 61t120.5 -37zM570 118q33 38 50 67t17 57t-24 49q-62 54 -182 -64q-52 -50 -64.5 -100t23.5 -83q65 -56 180 74z" />
    <glyph glyph-name="ampersand" unicode="&#x26;" horiz-adv-x="831" 
d="M690 144l146 -133h-209l-50 46q-94 -76 -237 -76q-134 0 -224.5 62t-90.5 160q0 59 59 99.5t147 64.5q-76 62 -108.5 102.5t-32.5 75.5q0 74 70 124.5t180 50.5t184 -51t74 -124q0 -57 -47.5 -86.5t-152.5 -58.5l284 -251l110 97l5 -4zM340 708q-36 0 -64.5 -17t-41 -46
t7.5 -75.5t76 -98.5l75 -67q67 36 67 157q0 67 -26 107t-94 40zM211 92q38 -50 108 -70t139 -7.5t112 49.5l-333 297q-26 -9 -45 -35.5t-26 -62.5t4 -82t41 -89z" />
    <glyph glyph-name="quotesingle" unicode="'" horiz-adv-x="198" 
d="M33 662q0 25 20 45t47 20q25 0 45 -20t20 -45q0 -20 -10 -34q-19 -26 -33 -67.5t-19 -70.5l-5 -29q-12 103 -56 165q-9 18 -9 36z" />
    <glyph glyph-name="parenleft" unicode="(" horiz-adv-x="311" 
d="M144 354q0 -13 -0.5 -47t0 -48t1.5 -44.5t5 -46t10 -41.5t16.5 -43.5t24.5 -39t34.5 -40t45.5 -35.5h-7q-244 158 -244 385q0 229 244 386h7q-25 -17 -45.5 -35.5t-34.5 -40t-24.5 -38.5t-16.5 -43t-10 -42t-5 -46.5t-1.5 -44.5t0 -48.5t0.5 -47.5z" />
    <glyph glyph-name="parenright" unicode=")" horiz-adv-x="311" 
d="M167 354q0 13 0.5 47.5t0 48.5t-1.5 44.5t-5 46.5t-10 42t-16.5 43t-24.5 38.5t-34.5 40t-45.5 35.5h7q244 -157 244 -386q0 -227 -244 -385h-7q25 17 45.5 35.5t34.5 40t24.5 39t16.5 43.5t10 41.5t5 46t1.5 44.5t0 48t-0.5 47z" />
    <glyph glyph-name="asterisk" unicode="*" horiz-adv-x="426" 
d="M214 573l67 130l-44 -137l139 42l-130 -66l130 -68l-139 45l45 -142l-68 133l-66 -130l42 139l-137 -44l130 67l-133 69l140 -45l-45 140z" />
    <glyph glyph-name="plus" unicode="+" horiz-adv-x="570" 
d="M292 315h248v-18h-248v-243h-18v243h-244v18h244v249h18v-249z" />
    <glyph glyph-name="comma" unicode="," horiz-adv-x="229" 
d="M178 61q1 -10 -0.5 -27t-9 -45.5t-30 -61.5t-57.5 -60h-6l12.5 10t23 24t21.5 34t-2.5 35t-38.5 31q-41 21 -41 59q0 26 19.5 45t46.5 19q24 0 43 -19t19 -44z" />
    <glyph glyph-name="hyphen" unicode="-" horiz-adv-x="451" 
d="M45 297v18h361v-18h-361z" />
    <glyph glyph-name="period" unicode="." horiz-adv-x="235" 
d="M119 -12q-29 0 -49 20t-20 49q0 27 20.5 47t48.5 20q26 0 46.5 -20.5t20.5 -46.5q0 -28 -20 -48.5t-47 -20.5z" />
    <glyph glyph-name="slash" unicode="/" horiz-adv-x="503" 
d="M463 751l-406 -815l-17 8l407 815z" />
    <glyph glyph-name="zero" unicode="0" horiz-adv-x="805" 
d="M755 349q0 -145 -106.5 -249.5t-245.5 -104.5q-140 0 -246.5 104.5t-106.5 249.5q0 146 106.5 250.5t246.5 104.5q139 0 245.5 -104.5t106.5 -250.5zM566 349q0 101 -15.5 176t-53.5 123t-96 48q-85 0 -123.5 -95t-38.5 -252q0 -344 162 -344q58 0 96 47t53.5 121.5
t15.5 175.5z" />
    <glyph glyph-name="one" unicode="1" horiz-adv-x="539" 
d="M40 256v402q29 -32 46 -50t38 -36t34.5 -23t31.5 -5.5t32.5 10t34.5 29.5t40 47.5t46 69.5l151 1v-701h-156l3 672z" />
    <glyph glyph-name="two" unicode="2" horiz-adv-x="681" 
d="M65 0q12 83 22 115q17 57 55.5 107t87.5 88t97 70t97.5 65.5t76.5 61.5q42 37 24 95q-18 55 -76 79q-94 40 -212 -46q-73 -53 -143 -147v156q65 49 163.5 63t190 -16t129.5 -100q3 -6 7 -16t12 -40t10 -57.5t-6 -62t-29 -59.5q-9 -11 -19.5 -21t-25.5 -21.5t-26 -19.5
t-33 -20.5t-32.5 -18.5t-38.5 -21t-37.5 -20t-43 -22t-42.5 -21q-43 -22 -80.5 -47.5t-60 -46.5t-38.5 -39t-22 -28zM576 0h-260l287 182z" />
    <glyph glyph-name="three" unicode="3" horiz-adv-x="753" 
d="M75 7q84 -3 164.5 20t143 64.5t101 104.5t38.5 135q0 32 -16 48t-46.5 13.5t-62.5 -11t-75.5 -29t-74.5 -36.5t-71 -37.5t-53 -28.5v10q33 22 99 60.5t105 64.5t82 62t59.5 73.5t7.5 77.5q-14 64 -76 89q-75 30 -156 -21q-104 -67 -153 -237l-5 214q46 43 127.5 60.5
t162 8.5t149 -46t89.5 -94q9 -24 -2 -47t-37.5 -40.5t-50.5 -29t-52 -21.5q103 2 156.5 -28t54.5 -103q0 -81 -37.5 -142.5t-98.5 -95t-125.5 -49.5t-130.5 -16h-216v7z" />
    <glyph glyph-name="four" unicode="4" horiz-adv-x="764" 
d="M687 210v-13h-103v-197h-155l1 197h-383l292 503h275q-46 -44 -109.5 -89t-118.5 -82t-112.5 -81.5t-111 -104.5t-94.5 -133h361l-1 204l156 118v-322h103z" />
    <glyph glyph-name="five" unicode="5" horiz-adv-x="621" 
d="M219 162q11 0 44 -1.5t54 -1.5t55 3.5t56.5 12t49.5 25.5t42.5 42.5t26 65t10.5 90.5q-1 105 -301 -71q-108 -63 -204 -130l2 503h457l-127 -152h-317l-1 -181q2 3 38.5 21.5t93.5 45t121.5 43t120.5 18t93.5 -32.5t38.5 -105q0 -83 -21 -148.5t-52 -103.5t-71.5 -63
t-75.5 -33.5t-67 -8.5h-235v162h169z" />
    <glyph glyph-name="six" unicode="6" horiz-adv-x="659" 
d="M26 281q4 40 21.5 84.5t54.5 95.5t88.5 96t131.5 87t176 68h11q-3 -3 -27 -13.5t-55 -24.5t-71.5 -43t-77 -64.5t-70 -93t-51.5 -125.5q57 63 132.5 90t143 18t120.5 -54t68 -118q18 -89 -47.5 -175.5t-174.5 -112.5q-100 -24 -190.5 6.5t-142 105.5t-40.5 173zM198 29
q20 -17 43 -20t44.5 5t48 28t48.5 41.5t51 53.5q156 198 74 268q-34 29 -75 23t-82 -36t-80 -80q-30 -38 -52 -76t-37 -77.5t-11.5 -74t28.5 -55.5z" />
    <glyph glyph-name="seven" unicode="7" horiz-adv-x="586" 
d="M157 0h-159q65 104 130 181.5t110 118t107.5 113t122.5 167.5h-465l70 120h468z" />
    <glyph glyph-name="eight" unicode="8" horiz-adv-x="711" 
d="M396 379q112 -18 183.5 -72t71.5 -129q0 -94 -84 -145.5t-215 -52.5q-126 -1 -209 51.5t-83 146.5q0 78 77 132t170 67q-5 2 -15 4q-208 50 -208 168q0 64 76.5 116.5t191.5 53.5q112 1 186.5 -52t74.5 -118q0 -64 -65 -113t-167 -53q5 -2 15 -4zM219 549
q0 -123 150 -163q48 7 77 41t29 122q0 68 -29 115t-94 47q-72 0 -102.5 -46.5t-30.5 -115.5zM352 -9q72 0 111.5 58.5t39.5 128.5q0 64 -54.5 117.5t-128.5 77.5q-120 -6 -120 -195q0 -43 15.5 -84.5t51.5 -72t85 -30.5z" />
    <glyph glyph-name="nine" unicode="9" horiz-adv-x="721" 
d="M659 417q-4 -40 -21.5 -84.5t-54.5 -95.5t-88.5 -96t-131.5 -87t-176 -68h-11q3 3 27 13.5t55 24.5t71.5 43t77 64.5t70 93t51.5 125.5q-57 -63 -132.5 -90t-143 -18t-120.5 54t-68 118q-18 89 47.5 175.5t174.5 112.5q100 24 190.5 -6.5t142 -105.5t40.5 -173zM487 669
q-20 17 -43 20t-44.5 -5t-48 -28t-48.5 -41.5t-51 -53.5q-156 -198 -74 -268q34 -29 75 -23t82 36t80 80q30 38 52 76t37 77.5t11.5 74t-28.5 55.5z" />
    <glyph glyph-name="colon" unicode=":" horiz-adv-x="236" 
d="M119 428q-29 0 -49 20t-20 49q0 27 20.5 47t48.5 20q26 0 46.5 -20.5t20.5 -46.5q0 -28 -20 -48.5t-47 -20.5zM119 148q-29 0 -49 20t-20 49q0 27 20.5 47t48.5 20q26 0 46.5 -20.5t20.5 -46.5q0 -28 -20 -48.5t-47 -20.5z" />
    <glyph glyph-name="semicolon" unicode=";" horiz-adv-x="306" 
d="M169 278q-29 0 -49 20t-20 49q0 27 20.5 47t48.5 20q26 0 46.5 -20.5t20.5 -46.5q0 -28 -20 -48.5t-47 -20.5zM232 61q1 -10 -0.5 -27t-9 -45.5t-30 -61.5t-57.5 -60h-6l12.5 10t23 24t21.5 34t-2.5 35t-38.5 31q-41 21 -41 59q0 26 19.5 45t46.5 19q24 0 43 -19t19 -44z
" />
    <glyph glyph-name="less" unicode="&#x3c;" 
 />
    <glyph glyph-name="equal" unicode="=" horiz-adv-x="466" 
d="M30 367v18h406v-18h-406zM30 227v18h406v-18h-406z" />
    <glyph glyph-name="greater" unicode="&#x3e;" 
 />
    <glyph glyph-name="question" unicode="?" horiz-adv-x="590" 
d="M60 608q129 84 212 98q58 9 117 0q70 -7 132 -53.5t68 -103.5q9 -78 -76.5 -155t-221.5 -99q-35 -9 -59 -26t-34 -35.5t-14.5 -36t-3.5 -28.5l1 -11h-4q-1 8 -1.5 22.5t2 52.5t11 68.5t31 60t56.5 38.5q11 4 39.5 13.5t39.5 14t32 14.5t30 19.5t20 24.5t14 34.5t1 43.5
q-4 64 -52.5 104t-119.5 29q-54 -8 -85.5 -34t-42.5 -55t-31 -80.5t-46 -90.5zM178 -12q-28 0 -48.5 20t-20.5 49q0 27 20.5 47t48.5 20q26 0 46.5 -20.5t20.5 -46.5q0 -28 -20 -48.5t-47 -20.5z" />
    <glyph glyph-name="A" unicode="A" horiz-adv-x="859" 
d="M147 233l-123 -233h-15l319 606q-10 19 -17.5 30.5t-27.5 30.5t-48 33h237l357 -700h-199l-111 233h-372zM512 246l-176 348l-181 -348h357z" />
    <glyph glyph-name="B" unicode="B" horiz-adv-x="919" 
d="M650 362q124 -5 196 -61q57 -46 35 -90q-5 -10 -15 -19l-205 -192h-556v656l-95 44h536q106 0 182 -50t76 -123q0 -52 -44.5 -99t-109.5 -66zM468 361q74 0 111.5 36.5t37.5 126.5q0 44 -20.5 77.5t-53.5 51t-68.5 26t-71.5 8.5h-114v-326h179zM681 219q115 120 -128 128
q-18 1 -38 1h-226v-335h171z" />
    <glyph glyph-name="C" unicode="C" horiz-adv-x="820" 
d="M435 704q-126 4 -178 -81.5t-52 -275.5q0 -109 18.5 -180t49.5 -98.5t71 -32t84 16.5t88.5 50.5t84.5 66.5t71 68t50 52l18 22v-224q-4 -4 -12.5 -11t-36.5 -24t-58.5 -30t-78 -24t-95.5 -11q-185 0 -317 105.5t-132 253.5q0 118 96 227.5t247 135.5q158 28 367 -59
l6 -255q-20 23 -44.5 66.5t-45.5 81.5t-48.5 75t-66.5 60t-86 25z" />
    <glyph glyph-name="D" unicode="D" horiz-adv-x="903" 
d="M882 350q0 -94 -55.5 -175t-145.5 -128t-190 -47h-450l65 13v674l-73 13h450q50 0 106 -17.5t107.5 -50.5t93.5 -75t67 -96.5t25 -110.5zM680 349q0 76 -18.5 134t-61.5 105.5t-122 73t-191 25.5v-674h143q112 0 181 96t69 240z" />
    <glyph glyph-name="E" unicode="E" horiz-adv-x="770" 
d="M715 194l-115 -194h-519v700h489l142 -184l-315 139l-144 40v-334h227v-13h-227v-344l163 43z" />
    <glyph glyph-name="F" unicode="F" horiz-adv-x="711" 
d="M75 0v700h495l101 -236l-374 226h-50v-333h297v-13h-297v-344h-172z" />
    <glyph glyph-name="G" unicode="G" horiz-adv-x="952" 
d="M892 367q-10 -206 -103.5 -291.5t-289.5 -87.5q-196 -1 -309 102.5t-113 258.5q0 157 120.5 260t313.5 102q54 0 119.5 -14t104.5 -28l39 -14l16 -220q-118 120 -209 182.5t-150.5 69.5t-97 -33.5t-53.5 -116t-16 -189.5q0 -153 61 -250t174 -97q76 0 141.5 108t65.5 252
l-275 -150l92 156h369z" />
    <glyph glyph-name="H" unicode="H" horiz-adv-x="835" 
d="M253 348l-1 -348h-175v700h176v-339h349v339h176v-700h-176v348h-349z" />
    <glyph glyph-name="I" unicode="I" horiz-adv-x="340" 
d="M90 0v700h160v-700h-160z" />
    <glyph glyph-name="J" unicode="J" horiz-adv-x="631" 
d="M547 345q1 -109 -39 -198t-117 -132t-172 -13q-25 8 -114 75.5t-90 67.5h178q69 0 114 3t93.5 14.5t76 32.5t45 58.5t16.5 91.5l-1 107l-325 247v2h333z" />
    <glyph glyph-name="K" unicode="K" horiz-adv-x="827" 
d="M777 0h-212l-332 355v-355h-163v699h163v-301l425 302h23l-335 -237z" />
    <glyph glyph-name="L" unicode="L" horiz-adv-x="684" 
d="M75 0v700h164v-691h37q21 0 91.5 54.5t184.5 152.5t140 119l-158 -335h-459z" />
    <glyph glyph-name="M" unicode="M" horiz-adv-x="1148" 
d="M606 197l348 503h166v-700h-166l-1 675l-339 -489l139 -186h-212l-420 590v-590h-13v603l-83 97h226z" />
    <glyph glyph-name="N" unicode="N" horiz-adv-x="796" 
d="M126 1h-13v584l-128 115h253l535 -609l-3 609h14v-700h-177l-481 571v-570z" />
    <glyph glyph-name="O" unicode="O" horiz-adv-x="784" 
d="M688 585q93 -114 72.5 -263.5t-142.5 -246.5t-274.5 -85.5t-246.5 125.5q-94 113 -73.5 262t142.5 247t275.5 86.5t246.5 -125.5zM516 201q62 49 105.5 98t69 98t22.5 97t-36 88q-27 33 -61 45.5t-68 9t-81 -24.5t-86 -44.5t-98 -63.5q-88 -59 -143 -124.5t-69.5 -132
t31.5 -122.5q44 -53 113 -57t143 31t158 102z" />
    <glyph glyph-name="P" unicode="P" horiz-adv-x="818" 
d="M748 493q0 -71 -56 -129t-141 -58l-315 -1v-305h-171v648q0 8 -16.5 16.5t-44.5 19t-39 16.5h543q110 0 175 -63t65 -144zM579 490q0 89 -68 145.5t-148 56.5h-127v-379h151q84 0 138 43.5t54 133.5z" />
    <glyph glyph-name="Q" unicode="Q" horiz-adv-x="784" 
d="M688 585q87 -108 74.5 -247.5t-117.5 -238.5l115 -118l-10 -9l-115 118q-5 -5 -17 -15q-122 -97 -274.5 -85.5t-246.5 125.5q-94 113 -73.5 262t142.5 247t275.5 86.5t246.5 -125.5zM430 320l10 9l96 -98q60 50 99 93t62.5 87.5t19 87.5t-37.5 82q-19 23 -43 35.5
t-46.5 15.5t-54.5 -5.5t-57 -18.5t-64.5 -33.5t-65.5 -40t-71 -47.5q-88 -60 -141 -120t-66.5 -124t33.5 -118q119 -144 421 96l1 1z" />
    <glyph glyph-name="R" unicode="R" horiz-adv-x="858" 
d="M532 700q113 0 177 -50t64 -128q0 -69 -55.5 -121.5t-142.5 -52.5h-235q0 -30 23.5 -56.5t61 -45t71.5 -30t66 -18.5l55 -12q75 -17 120.5 -69t60.5 -117h-206l-55 64q-18 21 -59.5 57t-70.5 63t-52.5 73.5t-22.5 97.5h79q26 0 55 8t59 25.5t49.5 51.5t19.5 79t-20 80
t-52 54.5t-66.5 28.5t-68.5 9l-122 -1v-690h-171v700h438z" />
    <glyph glyph-name="S" unicode="S" horiz-adv-x="689" 
d="M410 421q43 -12 86.5 -33t87.5 -59.5t67 -84.5t13 -112t-64 -139q-3 66 -34.5 115.5t-79.5 78.5t-105.5 52.5t-114.5 46.5t-104 50.5t-76.5 74t-29.5 109.5q0 76 64.5 125.5t152.5 62.5t181 -2.5t147 -57.5v-227q-57 185 -190 251q-92 46 -175 19q-62 -20 -72 -67
q-15 -65 82 -129q62 -41 164 -74zM326 0h-205v181z" />
    <glyph glyph-name="T" unicode="T" horiz-adv-x="781" 
d="M20 442l30 258h669l30 -258q-56 69 -148 158.5t-114 89.5h-24v-690h-159v690h-22q-22 0 -114 -89t-148 -159z" />
    <glyph glyph-name="U" unicode="U" horiz-adv-x="816" 
d="M751 330q0 -147 -78.5 -244.5t-214.5 -96.5q-181 1 -287 98t-106 243v370h178v-370q3 -146 59 -238t156 -92q116 0 198 83t82 247v370h13v-370z" />
    <glyph glyph-name="V" unicode="V" horiz-adv-x="725" 
d="M219 700l268 -496l247 496h14l-350 -702l-368 702h189z" />
    <glyph glyph-name="W" unicode="W" horiz-adv-x="1309" 
d="M484 0h-78l-376 699h200l298 -570l128 265l-144 305h180l286 -585l308 586h15l-367 -700h-89l-182 378z" />
    <glyph glyph-name="X" unicode="X" horiz-adv-x="820" 
d="M828 0h-226l-252 285l-285 -285h-14l292 293l-360 407h226l254 -287l287 287h17l-297 -296z" />
    <glyph glyph-name="Y" unicode="Y" horiz-adv-x="817" 
d="M491 366l309 334h12l-314 -342v-358h-174v333l-324 367h198z" />
    <glyph glyph-name="Z" unicode="Z" horiz-adv-x="944" 
d="M73 0l581 687h-205q-28 0 -186 -155.5t-223 -253.5l144 422h676l-575 -687h202q23 0 89.5 63t181 186.5t142.5 152.5l-166 -415h-661z" />
    <glyph glyph-name="backslash" unicode="\" horiz-adv-x="503" 
d="M40 751l16 8l407 -815l-17 -8z" />
    <glyph glyph-name="underscore" unicode="_" horiz-adv-x="602" 
d="M45 -12v18h512v-18h-512z" />
    <glyph glyph-name="a" unicode="a" horiz-adv-x="855" 
d="M158 234l-22 -36q-12 -19 4.5 -41.5t53.5 -44t75.5 -40.5t83 -39.5t64.5 -32.5h-407l321 565q-56 107 -86 135h199l377 -699h-191l-131 232zM492 246l-156 308l-170 -308h326z" />
    <glyph glyph-name="b" unicode="b" horiz-adv-x="903" 
d="M607 373q70 -4 134.5 -36.5t87.5 -71t-6 -73.5l-205 -192h-556v700h441q106 0 182 -50t76 -123q0 -51 -44 -92.5t-110 -61.5zM425 372q76 0 112.5 31.5t36.5 120.5q0 44 -20.5 77.5t-53.5 51t-68.5 26t-71.5 8.5h-123v-315h188zM638 219q60 62 -6 101.5t-160 39.5h-235
v-348h180z" />
    <glyph glyph-name="c" unicode="c" horiz-adv-x="850" 
d="M465 704q-126 4 -178 -81.5t-52 -275.5q0 -118 18.5 -194.5t49.5 -106t71 -34.5t84 18t88.5 55t84.5 72.5t71 74.5t50 57l18 23v-224q-4 -4 -12.5 -11t-36.5 -24t-58.5 -30t-78 -24t-95.5 -11q-185 0 -317 105.5t-132 253.5q0 118 96 227.5t247 135.5q158 28 367 -59
l6 -255q-20 23 -44.5 66.5t-45.5 81.5t-48.5 75t-66.5 60t-86 25z" />
    <glyph glyph-name="d" unicode="d" horiz-adv-x="951" 
d="M942 350q0 -144 -123.5 -247t-297.5 -103h-240l2 371q-6 35 -50.5 92.5t-100.5 125t-79 111.5h460q99 0 198 -46.5t165 -128.5t66 -175zM730 349q0 61 -10.5 108.5t-39.5 92t-77.5 73.5t-128 46.5t-187.5 17.5v-316q8 -47 89 -175t101 -183h13q111 0 175.5 95t64.5 241z
" />
    <glyph glyph-name="e" unicode="e" horiz-adv-x="742" 
d="M242 243q42 32 86 105t67 98h219l-372 -213v-220h52q55 0 122 23.5t116.5 51.5t105 61t77.5 43l-53 -192h-592v700h612v-186q-49 22 -114 68t-116.5 75.5t-94.5 29.5h-115v-444z" />
    <glyph glyph-name="f" unicode="f" horiz-adv-x="746" 
d="M685 700v-236q-61 81 -142 152t-131 71h-173v-320l294 182v-398q-7 12 -20 34t-23 39.5t-24.5 41t-27.5 41t-28 36t-30 29.5t-30.5 18t-31.5 5.5t-31 -11.5l-48 -30v-354h-169v700h615z" />
    <glyph glyph-name="g" unicode="g" horiz-adv-x="861" 
d="M832 294q-8 -141 -113 -224.5t-261 -81.5q-184 1 -306 105.5t-122 254.5q0 90 54 169.5t140 130.5q4 3 10.5 7t30 15t49 19.5t65.5 15t81 6.5q61 2 121 -12q30 -6 62 -16t59 -19.5t35 -11.5l5 -216q-129 119 -223 179.5t-154 69t-95.5 -33.5t-49 -115t-13.5 -189
q0 -152 65 -247.5t186 -95.5q85 0 151.5 106t66.5 252q-98 -68 -204 -146.5t-142 -102.5l109 254h394z" />
    <glyph glyph-name="h" unicode="h" horiz-adv-x="994" 
d="M247 348l-1 -348h-166v700h167v-339h457v49q0 34 -20.5 70.5t-47.5 64.5t-69.5 60t-68 48t-61.5 38q-3 2 -4.5 2.5t-3.5 2t-3.5 2.5t-3.5 2h295v-451q0 -29 29 -64.5t65.5 -63.5t80 -63.5t62.5 -57.5h-250v348h-457z" />
    <glyph glyph-name="i" unicode="i" horiz-adv-x="340" 
d="M90 0v700h160v-700h-160z" />
    <glyph glyph-name="j" unicode="j" horiz-adv-x="597" 
d="M219 145q69 0 111.5 3t86 14.5t66.5 32.5t37.5 58.5t13.5 91.5l-1 107q0 14 -60 59t-146 103.5t-119 85.5h337l2 -355q1 -109 -40.5 -198t-119 -132t-172.5 -13q-24 8 -97.5 75t-76.5 68h178zM41 372v-227q22 22 91.5 72.5t151.5 114.5t137 122z" />
    <glyph glyph-name="k" unicode="k" horiz-adv-x="796" 
d="M232 699v-303l182 117q12 9 19.5 25.5t10 40t3.5 40t0 45.5t-1 36h265l-361 -241l426 -459h-212l-332 355v-355h-162v699h162z" />
    <glyph glyph-name="l" unicode="l" horiz-adv-x="767" 
d="M75 0v700h164v-691q44 5 112 40.5t174 103t147 91.5l-118 -244h-479z" />
    <glyph glyph-name="m" unicode="m" horiz-adv-x="1158" 
d="M604 197l348 503h176v-700h-176l-1 675l-339 -489l139 -186h-220l-420 590v-314q0 -61 81 -148t198 -128h-292v603l-83 97h234z" />
    <glyph glyph-name="n" unicode="n" horiz-adv-x="788" 
d="M126 1h-13v584l-128 115h245l535 -609l-2 257q0 59 -65.5 141t-137 139.5t-109.5 71.5h325v-700h-169l-481 571v-570z" />
    <glyph glyph-name="o" unicode="o" horiz-adv-x="773" 
d="M157 650q118 88 269.5 61.5t246.5 -150.5t78.5 -273.5t-134.5 -236.5q-119 -88 -270 -62.5t-246 149.5q-95 123 -78.5 273t134.5 239zM231 235q48 -63 96.5 -108t97.5 -71.5t98 -26t91 31.5q56 42 60 111.5t-34.5 145.5t-109.5 155q-47 52 -79.5 85t-73 64.5t-72.5 43
t-68 7.5t-70 -29q-56 -41 -62 -108t27.5 -141.5t98.5 -159.5z" />
    <glyph glyph-name="p" unicode="p" horiz-adv-x="713" 
d="M703 473q0 -99 -71 -157.5t-166 -58.5l-272 -1v-256h-174v700h403q122 0 201 -59.5t79 -167.5zM534 470q0 62 -27 107.5t-70 67.5t-85 32t-84 10h-74v-418h98q242 0 242 201z" />
    <glyph glyph-name="q" unicode="q" horiz-adv-x="784" 
d="M688 585q87 -108 74.5 -247.5t-117.5 -238.5l115 -118l-10 -9l-115 118q-5 -5 -17 -15q-122 -97 -274.5 -85.5t-246.5 125.5q-94 113 -73.5 262t142.5 247t275.5 86.5t246.5 -125.5zM430 320l10 9l96 -98q60 50 99 93t62.5 87.5t19 87.5t-37.5 82q-19 23 -43 35.5
t-46.5 15.5t-54.5 -5.5t-57 -18.5t-64.5 -33.5t-65.5 -40t-71 -47.5q-88 -60 -141 -120t-66.5 -124t33.5 -118q119 -144 421 96l1 1z" />
    <glyph glyph-name="r" unicode="r" horiz-adv-x="866" 
d="M520 700q114 0 182.5 -50.5t68.5 -127.5q0 -68 -60 -121t-148 -53h-237q30 -51 104.5 -100t147.5 -82t144 -77.5t96 -88.5h-272q-177 175 -229 361h82q33 0 63 7t59 23.5t46.5 49t17.5 78.5q0 88 -61 128t-149 40h-110v-687h-171v700h426z" />
    <glyph glyph-name="s" unicode="s" horiz-adv-x="689" 
d="M410 421q43 -12 86.5 -33t87.5 -59.5t67 -84.5t13 -112t-64 -139q-3 66 -34.5 115.5t-79.5 78.5t-105.5 52.5t-114.5 46.5t-104 50.5t-76.5 74t-29.5 109.5q0 76 64.5 125.5t152.5 62.5t181 -2.5t147 -57.5v-227q-55 181 -188 247q-92 46 -176 19q-62 -19 -73 -66
q-14 -64 83 -127q63 -40 163 -73zM326 0h-205v181z" />
    <glyph glyph-name="t" unicode="t" horiz-adv-x="777" 
d="M45 720q14 -4 167 -12.5t175 -7.5h18q23 -1 168.5 7t158.5 13l30 -315q-61 96 -154.5 189t-137.5 93h-2v-687h-159v687h-2q-49 0 -145.5 -100t-146.5 -182z" />
    <glyph glyph-name="u" unicode="u" horiz-adv-x="861" 
d="M343 700q-68 -52 -119.5 -125.5t-79 -150.5t-29 -153.5t23 -136t85.5 -96t151 -36.5q107 1 175 94t71 234v370h175v-370q0 -146 -114.5 -243t-306.5 -98q-148 -1 -229 95.5t-81 245.5v370h278z" />
    <glyph glyph-name="v" unicode="v" horiz-adv-x="725" 
d="M219 700l260 -509l155 312l-259 197h373l-350 -702l-368 702h189z" />
    <glyph glyph-name="w" unicode="w" horiz-adv-x="1119" 
d="M1099 700l-350 -702l-185 352l-175 -352l-368 702h189l268 -496l79 159l-176 337h189l81 -149l74 149h14l-81 -163l180 -333l247 496h14z" />
    <glyph glyph-name="x" unicode="x" horiz-adv-x="682" 
d="M709 0h-213l-203 273l-206 -263h-17l215 274l-310 417h213l206 -277l217 277h17l-226 -288z" />
    <glyph glyph-name="y" unicode="y" horiz-adv-x="805" 
d="M490 366l309 334h12l-314 -342v-358h-174v333l-324 367h198z" />
    <glyph glyph-name="z" unicode="z" horiz-adv-x="954" 
d="M850 700l-564 -687h82q69 0 138.5 25.5t125.5 65.5t101.5 79.5t85 76.5t58.5 48l-123 -308h-681l565 687h-114q-59 0 -119.5 -26t-119.5 -75.5t-108 -101t-105 -121.5h-3l115 337h666z" />
    <glyph glyph-name="asciitilde" unicode="~" 
 />
    <glyph glyph-name="exclamdown" unicode="&#xa1;" horiz-adv-x="286" 
d="M142 579q28 0 48.5 -20.5t20.5 -48.5q0 -27 -20.5 -47t-48.5 -20q-26 0 -46.5 20.5t-20.5 46.5q0 28 20 48.5t47 20.5zM208 -75q0 -24 -21 -43t-45 -19t-45 19t-21 43q0 22 66 443z" />
    <glyph glyph-name="copyright" unicode="&#xa9;" horiz-adv-x="767" 
d="M383 17q139 0 237 98q97 97 97 236t-97 236q-98 98 -237 98q-138 0 -236 -98q-97 -97 -97 -236t97 -236q98 -98 236 -98zM383 678q137 0 232 -95q96 -96 96 -232q0 -135 -96 -231t-232 -96q-133 0 -231 96q-96 94 -96 231q0 138 96 232q97 95 231 95zM240 347
q2 -82 26 -132.5t60.5 -63t79 0t85 55t74.5 104.5v-118q-8 -7 -23 -17t-58.5 -26t-85.5 -16q-103 1 -173 63t-70 150q0 52 22 98.5t70.5 82.5t125 37.5t184.5 -37.5l3 -105q-53 64 -103 98t-89.5 36t-69 -20.5t-45 -72t-13.5 -117.5z" />
    <glyph glyph-name="logicalnot" unicode="&#xac;" 
 />
    <glyph glyph-name="registered" unicode="&#xae;" 
 />
    <glyph glyph-name="plusminus" unicode="&#xb1;" horiz-adv-x="568" 
d="M292 395h248v-18h-248v-243h-18v243h-244v18h244v249h18v-249zM28 56v18h510v-18h-510z" />
    <glyph glyph-name="periodcentered" unicode="&#xb7;" horiz-adv-x="216" 
d="M109 278q-33 0 -56 23t-23 56q0 31 23 54t56 23q30 0 53.5 -23.5t23.5 -53.5q0 -33 -23 -56t-54 -23z" />
    <glyph glyph-name="questiondown" unicode="&#xbf;" 
d="M75 164q2 -18 15 -42t37.5 -50.5t69.5 -45t100 -18.5q29 0 56 18t44 44t30 52t19 44l5 18q22 70 -7 104t-100 36t-175 -11v6q6 1 16.5 2t41.5 7.5t59 15t62 25t59 36.5t42 50.5t17 66.5q0 114 -57.5 158.5t-150 -0.5t-181.5 -174v164q72 31 159 38t161 -8.5t124 -61
t50 -112.5q0 -95 -234 -185q54 1 102 -6.5t81.5 -22t56.5 -34t27 -41.5t-7 -46q-25 -47 -39.5 -71t-38 -51.5t-48.5 -39.5t-61.5 -20.5t-86.5 -8.5h-247q-1 0 -1 2v162z" />
    <glyph glyph-name="Agrave" unicode="&#xc0;" horiz-adv-x="859" 
d="M175 887l259 -129l-95 2zM147 233l-123 -233h-15l319 606q-10 19 -17.5 30.5t-27.5 30.5t-48 33h237l357 -700h-199l-111 233h-372zM512 246l-176 348l-181 -348h357z" />
    <glyph glyph-name="Aacute" unicode="&#xc1;" horiz-adv-x="859" 
d="M538 887l-164 -127l-95 -2zM147 233l-123 -233h-15l319 606q-10 19 -17.5 30.5t-27.5 30.5t-48 33h237l357 -700h-199l-111 233h-372zM512 246l-176 348l-181 -348h357z" />
    <glyph glyph-name="Acircumflex" unicode="&#xc2;" horiz-adv-x="859" 
d="M150 730l170 127l188 -127l-188 65zM147 233l-123 -233h-15l319 606q-10 19 -17.5 30.5t-27.5 30.5t-48 33h237l357 -700h-199l-111 233h-372zM512 246l-176 348l-181 -348h357z" />
    <glyph glyph-name="Atilde" unicode="&#xc3;" horiz-adv-x="859" 
d="M187 769q3 6 9 15t27.5 29t45 30.5t61 9t76.5 -24.5q3 -2 8.5 -5t22 -8t33 -4.5t40 10.5t44.5 32q-3 -5 -8 -13t-22 -25.5t-36 -27t-48 -9t-59 19.5t-61 23t-54 -4t-41.5 -18.5t-28.5 -20.5zM147 233l-123 -233h-15l319 606q-10 19 -17.5 30.5t-27.5 30.5t-48 33h237
l357 -700h-199l-111 233h-372zM512 246l-176 348l-181 -348h357z" />
    <glyph glyph-name="Adieresis" unicode="&#xc4;" horiz-adv-x="859" 
d="M228 787q0 -21 -15 -35.5t-36 -14.5t-36 14.5t-15 35.5q0 22 15 36.5t36 14.5t36 -14.5t15 -36.5zM509 787q0 -21 -15 -35.5t-36 -14.5t-36 14.5t-15 35.5q0 22 15 36.5t36 14.5t36 -14.5t15 -36.5zM147 233l-123 -233h-15l319 606q-10 19 -17.5 30.5t-27.5 30.5t-48 33
h237l357 -700h-199l-111 233h-372zM512 246l-176 348l-181 -348h357z" />
    <glyph glyph-name="Aring" unicode="&#xc5;" horiz-adv-x="859" 
d="M370 739q33 0 56.5 23.5t23.5 56.5t-23.5 56t-56.5 23t-56 -23t-23 -56t23 -56.5t56 -23.5zM370 877q24 0 41.5 -17t17.5 -41t-17.5 -41.5t-41.5 -17.5t-41 17.5t-17 41.5t17 41t41 17zM147 233l-123 -233h-15l319 606q-10 19 -17.5 30.5t-27.5 30.5t-48 33h237l357 -700
h-199l-111 233h-372zM512 246l-176 348l-181 -348h357z" />
    <glyph glyph-name="AE" unicode="&#xc6;" horiz-adv-x="1249" 
d="M29 0l530 700h490l142 -184l-315 139l-144 40v-334h227v-13h-227v-344l163 43l299 147l-115 -194h-520v348h-249l-266 -348h-15zM320 361h239v312z" />
    <glyph glyph-name="Ccedilla" unicode="&#xc7;" horiz-adv-x="820" 
d="M439 -12q-21 0 -31 1l-20 -52q33 6 68.5 3.5t62.5 -22.5t27 -51q0 -30 -39.5 -53t-93.5 -28.5t-112 8.5l20 57q166 -91 166 16q0 36 -25 52t-64.5 10.5t-84.5 -29.5l40 98q-149 30 -246 127t-97 222q0 118 96 227.5t247 135.5q158 28 367 -59l6 -255q-20 23 -44.5 66.5
t-45.5 81.5t-48.5 75t-66.5 60t-86 25q-126 4 -178 -81.5t-52 -275.5q0 -109 18.5 -180t49.5 -98.5t71 -32t84 16.5t88.5 50.5t84.5 66.5t71 68t50 52l18 22v-224q-4 -4 -12.5 -11t-36.5 -24t-58.5 -30t-78 -24t-95.5 -11h-11h-9z" />
    <glyph glyph-name="Egrave" unicode="&#xc8;" horiz-adv-x="770" 
d="M115 887l259 -129l-95 2zM715 194l-115 -194h-519v700h489l142 -184l-315 139l-144 40v-334h227v-13h-227v-344l163 43z" />
    <glyph glyph-name="Eacute" unicode="&#xc9;" horiz-adv-x="770" 
d="M538 887l-164 -127l-95 -2zM715 194l-115 -194h-519v700h489l142 -184l-315 139l-144 40v-334h227v-13h-227v-344l163 43z" />
    <glyph glyph-name="Ecircumflex" unicode="&#xca;" horiz-adv-x="770" 
d="M210 730l170 127l188 -127l-188 65zM715 194l-115 -194h-519v700h489l142 -184l-315 139l-144 40v-334h227v-13h-227v-344l163 43z" />
    <glyph glyph-name="Edieresis" unicode="&#xcb;" horiz-adv-x="702" 
d="M278 787q0 -21 -15 -35.5t-36 -14.5t-36 14.5t-15 35.5q0 22 15 36.5t36 14.5t36 -14.5t15 -36.5zM559 787q0 -21 -15 -35.5t-36 -14.5t-36 14.5t-15 35.5q0 22 15 36.5t36 14.5t36 -14.5t15 -36.5zM715 194l-115 -194h-519v700h489l142 -184l-315 139l-144 40v-334h227
v-13h-227v-344l163 43z" />
    <glyph glyph-name="Igrave" unicode="&#xcc;" horiz-adv-x="320" 
d="M-65 887l259 -129l-95 2zM70 0v700h160v-700h-160z" />
    <glyph glyph-name="Iacute" unicode="&#xcd;" horiz-adv-x="448" 
d="M378 887l-164 -127l-95 -2zM90 0v700h160v-700h-160z" />
    <glyph glyph-name="Icircumflex" unicode="&#xce;" horiz-adv-x="368" 
d="M5 730l170 127l188 -127l-188 65zM93 0v700h160v-700h-160z" />
    <glyph glyph-name="Idieresis" unicode="&#xcf;" horiz-adv-x="273" 
d="M117 787q0 -21 -15 -35.5t-36 -14.5t-36 14.5t-15 35.5q0 22 15 36.5t36 14.5t36 -14.5t15 -36.5zM258 787q0 -21 -15 -35.5t-36 -14.5t-36 14.5t-15 35.5q0 22 15 36.5t36 14.5t36 -14.5t15 -36.5zM56 0v700h160v-700h-160z" />
    <glyph glyph-name="Eth" unicode="&#xd0;" horiz-adv-x="903" 
d="M483 700q50 0 106 -17.5t107.5 -50.5t93.5 -75t67 -96.5t25 -110.5q0 -94 -55.5 -175t-145.5 -128t-190 -47h-450l65 13v304h-86v78h86v292l-73 13h450zM430 13q112 0 181 96t69 240q0 76 -18.5 134t-61.5 105.5t-122 73t-191 25.5v-292h86v-78h-86v-304h143z" />
    <glyph glyph-name="Ntilde" unicode="&#xd1;" horiz-adv-x="796" 
d="M604 853q-3 -5 -8 -13t-22 -25.5t-36 -27t-48 -9t-59 19.5t-61 23t-54 -4t-41.5 -18.5t-28.5 -20.5l-9 -9q3 6 9 15t27.5 29t45 30.5t61 9t76.5 -24.5q3 -2 8.5 -5t22 -8t33 -4.5t40 10.5t44.5 32zM126 1h-13v584l-128 115h253l535 -609l-3 609h14v-700h-177l-481 571
v-570z" />
    <glyph glyph-name="Ograve" unicode="&#xd2;" horiz-adv-x="784" 
d="M195 887l259 -129l-95 2zM688 585q93 -114 72.5 -263.5t-142.5 -246.5t-274.5 -85.5t-246.5 125.5q-94 113 -73.5 262t142.5 247t275.5 86.5t246.5 -125.5zM516 201q62 49 105.5 98t69 98t22.5 97t-36 88q-27 33 -61 45.5t-68 9t-81 -24.5t-86 -44.5t-98 -63.5
q-88 -59 -143 -124.5t-69.5 -132t31.5 -122.5q44 -53 113 -57t143 31t158 102z" />
    <glyph glyph-name="Oacute" unicode="&#xd3;" horiz-adv-x="784" 
d="M538 887l-164 -127l-95 -2zM688 585q93 -114 72.5 -263.5t-142.5 -246.5t-274.5 -85.5t-246.5 125.5q-94 113 -73.5 262t142.5 247t275.5 86.5t246.5 -125.5zM516 201q62 49 105.5 98t69 98t22.5 97t-36 88q-27 33 -61 45.5t-68 9t-81 -24.5t-86 -44.5t-98 -63.5
q-88 -59 -143 -124.5t-69.5 -132t31.5 -122.5q44 -53 113 -57t143 31t158 102z" />
    <glyph glyph-name="Ocircumflex" unicode="&#xd4;" horiz-adv-x="784" 
d="M219 730l170 127l188 -127l-188 65zM688 585q93 -114 72.5 -263.5t-142.5 -246.5t-274.5 -85.5t-246.5 125.5q-94 113 -73.5 262t142.5 247t275.5 86.5t246.5 -125.5zM516 201q62 49 105.5 98t69 98t22.5 97t-36 88q-27 33 -61 45.5t-68 9t-81 -24.5t-86 -44.5t-98 -63.5
q-88 -59 -143 -124.5t-69.5 -132t31.5 -122.5q44 -53 113 -57t143 31t158 102z" />
    <glyph glyph-name="Otilde" unicode="&#xd5;" horiz-adv-x="784" 
d="M217 769q3 6 9 15t27.5 29t45 30.5t61 9t76.5 -24.5q3 -2 8.5 -5t22 -8t33 -4.5t40 10.5t44.5 32q-3 -5 -8 -13t-22 -25.5t-36 -27t-48 -9t-59 19.5t-61 23t-54 -4t-41.5 -18.5t-28.5 -20.5zM688 585q93 -114 72.5 -263.5t-142.5 -246.5t-274.5 -85.5t-246.5 125.5
q-94 113 -73.5 262t142.5 247t275.5 86.5t246.5 -125.5zM516 201q62 49 105.5 98t69 98t22.5 97t-36 88q-27 33 -61 45.5t-68 9t-81 -24.5t-86 -44.5t-98 -63.5q-88 -59 -143 -124.5t-69.5 -132t31.5 -122.5q44 -53 113 -57t143 31t158 102z" />
    <glyph glyph-name="Odieresis" unicode="&#xd6;" horiz-adv-x="784" 
d="M328 787q0 -21 -15 -35.5t-36 -14.5t-36 14.5t-15 35.5q0 22 15 36.5t36 14.5t36 -14.5t15 -36.5zM609 787q0 -21 -15 -35.5t-36 -14.5t-36 14.5t-15 35.5q0 22 15 36.5t36 14.5t36 -14.5t15 -36.5zM688 585q93 -114 72.5 -263.5t-142.5 -246.5t-274.5 -85.5
t-246.5 125.5q-94 113 -73.5 262t142.5 247t275.5 86.5t246.5 -125.5zM516 201q62 49 105.5 98t69 98t22.5 97t-36 88q-27 33 -61 45.5t-68 9t-81 -24.5t-86 -44.5t-98 -63.5q-88 -59 -143 -124.5t-69.5 -132t31.5 -122.5q44 -53 113 -57t143 31t158 102z" />
    <glyph glyph-name="multiply" unicode="&#xd7;" horiz-adv-x="435" 
d="M229 306l174 -175l-12 -13l-175 175l-172 -172l-13 13l172 172l-173 173l13 13l173 -173l176 176l13 -13z" />
    <glyph glyph-name="Oslash" unicode="&#xd8;" horiz-adv-x="784" 
d="M693 578q89 -114 67 -261t-142 -242q-122 -97 -274 -85.5t-246 124.5l-58 -45l-6 9l57 44q-89 113 -67 259.5t142 242.5q121 97 274 86t246 -123l66 51l6 -9zM283 504q-87 -59 -142 -123.5t-70.5 -130.5t28.5 -121l579 451v1l-1 1q-27 33 -61 45.5t-68 9t-81 -24.5
t-86 -44.5t-98 -63.5zM516 201q60 48 102.5 94.5t69 96t25.5 93.5t-28 87l-579 -452q45 -50 113 -52t141 32.5t156 100.5z" />
    <glyph glyph-name="Ugrave" unicode="&#xd9;" horiz-adv-x="816" 
d="M195 887l259 -129l-95 2zM751 330q0 -147 -78.5 -244.5t-214.5 -96.5q-181 1 -287 98t-106 243v370h178v-370q3 -146 59 -238t156 -92q116 0 198 83t82 247v370h13v-370z" />
    <glyph glyph-name="Uacute" unicode="&#xda;" horiz-adv-x="816" 
d="M628 887l-164 -127l-95 -2zM751 330q0 -147 -78.5 -244.5t-214.5 -96.5q-181 1 -287 98t-106 243v370h178v-370q3 -146 59 -238t156 -92q116 0 198 83t82 247v370h13v-370z" />
    <glyph glyph-name="Ucircumflex" unicode="&#xdb;" horiz-adv-x="816" 
d="M299 730l170 127l188 -127l-188 65zM751 330q0 -147 -78.5 -244.5t-214.5 -96.5q-181 1 -287 98t-106 243v370h178v-370q3 -146 59 -238t156 -92q116 0 198 83t82 247v370h13v-370z" />
    <glyph glyph-name="Udieresis" unicode="&#xdc;" horiz-adv-x="816" 
d="M348 787q0 -21 -15 -35.5t-36 -14.5t-36 14.5t-15 35.5q0 22 15 36.5t36 14.5t36 -14.5t15 -36.5zM629 787q0 -21 -15 -35.5t-36 -14.5t-36 14.5t-15 35.5q0 22 15 36.5t36 14.5t36 -14.5t15 -36.5zM751 330q0 -147 -78.5 -244.5t-214.5 -96.5q-181 1 -287 98t-106 243
v370h178v-370q3 -146 59 -238t156 -92q116 0 198 83t82 247v370h13v-370z" />
    <glyph glyph-name="Yacute" unicode="&#xdd;" horiz-adv-x="817" 
d="M618 887l-164 -127l-95 -2zM491 366l309 334h12l-314 -342v-358h-174v333l-324 367h198z" />
    <glyph glyph-name="Thorn" unicode="&#xde;" horiz-adv-x="773" 
d="M703 363q0 -99 -71 -157.5t-166 -58.5l-272 -1v-146h-174v700h174v-110h229q121 0 200.5 -59.5t79.5 -167.5zM534 360q0 62 -27 107.5t-70 67.5t-85 32t-84 10h-74v-418h98q242 0 242 201z" />
    <glyph glyph-name="agrave" unicode="&#xe0;" horiz-adv-x="855" 
d="M120 887l259 -129l-95 2zM158 234l-22 -36q-12 -19 4.5 -41.5t53.5 -44t75.5 -40.5t83 -39.5t64.5 -32.5h-407l321 565q-56 107 -86 135h199l377 -699h-191l-131 232zM492 246l-156 308l-170 -308h326z" />
    <glyph glyph-name="aacute" unicode="&#xe1;" horiz-adv-x="855" 
d="M538 887l-164 -127l-95 -2zM158 234l-22 -36q-12 -19 4.5 -41.5t53.5 -44t75.5 -40.5t83 -39.5t64.5 -32.5h-407l321 565q-56 107 -86 135h199l377 -699h-191l-131 232zM492 246l-156 308l-170 -308h326z" />
    <glyph glyph-name="acircumflex" unicode="&#xe2;" horiz-adv-x="855" 
d="M180 730l170 127l188 -127l-188 65zM158 234l-22 -36q-12 -19 4.5 -41.5t53.5 -44t75.5 -40.5t83 -39.5t64.5 -32.5h-407l321 565q-56 107 -86 135h199l377 -699h-191l-131 232zM492 246l-156 308l-170 -308h326z" />
    <glyph glyph-name="atilde" unicode="&#xe3;" horiz-adv-x="855" 
d="M544 853q-3 -5 -8 -13t-22 -25.5t-36 -27t-48 -9t-59 19.5t-61 23t-54 -4t-41.5 -18.5t-28.5 -20.5l-9 -9q3 6 9 15t27.5 29t45 30.5t61 9t76.5 -24.5q3 -2 8.5 -5t22 -8t33 -4.5t40 10.5t44.5 32zM158 234l-22 -36q-12 -19 4.5 -41.5t53.5 -44t75.5 -40.5t83 -39.5
t64.5 -32.5h-407l321 565q-56 107 -86 135h199l377 -699h-191l-131 232zM492 246l-156 308l-170 -308h326z" />
    <glyph glyph-name="adieresis" unicode="&#xe4;" horiz-adv-x="855" 
d="M262 787q0 -21 -15 -35.5t-36 -14.5t-36 14.5t-15 35.5q0 22 15 36.5t36 14.5t36 -14.5t15 -36.5zM543 787q0 -21 -15 -35.5t-36 -14.5t-36 14.5t-15 35.5q0 22 15 36.5t36 14.5t36 -14.5t15 -36.5zM158 234l-22 -36q-12 -19 4.5 -41.5t53.5 -44t75.5 -40.5t83 -39.5
t64.5 -32.5h-407l321 565q-56 107 -86 135h199l377 -699h-191l-131 232zM492 246l-156 308l-170 -308h326z" />
    <glyph glyph-name="aring" unicode="&#xe5;" horiz-adv-x="855" 
d="M350 739q33 0 56.5 23.5t23.5 56.5t-23.5 56t-56.5 23t-56 -23t-23 -56t23 -56.5t56 -23.5zM350 877q24 0 41.5 -17t17.5 -41t-17.5 -41.5t-41.5 -17.5t-41 17.5t-17 41.5t17 41t41 17zM158 234l-22 -36q-12 -19 4.5 -41.5t53.5 -44t75.5 -40.5t83 -39.5t64.5 -32.5h-407
l321 565q-56 107 -86 135h199l377 -699h-191l-131 232zM492 246l-156 308l-170 -308h326z" />
    <glyph glyph-name="ae" unicode="&#xe6;" horiz-adv-x="1270" 
d="M938 13l289 191l-105 -204h-537l2 348h-262l-119 -150q-15 -21 0 -44t52.5 -44.5t77.5 -39.5t85.5 -38t65.5 -32h-460l562 700h503l112 -210l-295 197h-154v-326h247v-13h-247v-335h183zM335 361h252l1 319z" />
    <glyph glyph-name="ccedilla" unicode="&#xe7;" horiz-adv-x="850" 
d="M489 -12q-38 0 -67 4l-34 -55q51 12 94.5 -6t43.5 -64q0 -30 -34 -50.5t-84 -23.5t-107 11l20 47q166 -91 166 16q0 54 -50.5 62t-103.5 -29l50 98q-149 30 -246 127t-97 222q0 118 96 227.5t247 135.5q158 28 367 -59l6 -255q-20 23 -44.5 66.5t-45.5 81.5t-48.5 75
t-66.5 60t-86 25q-126 4 -178 -81.5t-52 -275.5q0 -118 18.5 -194.5t49.5 -106t71 -34.5t84 18t88.5 55t84.5 72.5t71 74.5t50 57l18 23v-224q-4 -4 -12.5 -11t-36.5 -24t-58.5 -30t-78 -24t-95.5 -11z" />
    <glyph glyph-name="egrave" unicode="&#xe8;" horiz-adv-x="742" 
d="M115 887l259 -129l-95 2zM242 243q42 32 86 105t67 98h219l-372 -213v-220h52q55 0 122 23.5t116.5 51.5t105 61t77.5 43l-53 -192h-592v700h612v-186q-49 22 -114 68t-116.5 75.5t-94.5 29.5h-115v-444z" />
    <glyph glyph-name="eacute" unicode="&#xe9;" horiz-adv-x="742" 
d="M538 887l-164 -127l-95 -2zM242 243q42 32 86 105t67 98h219l-372 -213v-220h52q55 0 122 23.5t116.5 51.5t105 61t77.5 43l-53 -192h-592v700h612v-186q-49 22 -114 68t-116.5 75.5t-94.5 29.5h-115v-444z" />
    <glyph glyph-name="ecircumflex" unicode="&#xea;" horiz-adv-x="742" 
d="M210 730l170 127l188 -127l-188 65zM242 243q42 32 86 105t67 98h219l-372 -213v-220h52q55 0 122 23.5t116.5 51.5t105 61t77.5 43l-53 -192h-592v700h612v-186q-49 22 -114 68t-116.5 75.5t-94.5 29.5h-115v-444z" />
    <glyph glyph-name="edieresis" unicode="&#xeb;" horiz-adv-x="742" 
d="M288 787q0 -21 -15 -35.5t-36 -14.5t-36 14.5t-15 35.5q0 22 15 36.5t36 14.5t36 -14.5t15 -36.5zM569 787q0 -21 -15 -35.5t-36 -14.5t-36 14.5t-15 35.5q0 22 15 36.5t36 14.5t36 -14.5t15 -36.5zM242 243q42 32 86 105t67 98h219l-372 -213v-220h52q55 0 122 23.5
t116.5 51.5t105 61t77.5 43l-53 -192h-592v700h612v-186q-49 22 -114 68t-116.5 75.5t-94.5 29.5h-115v-444z" />
    <glyph glyph-name="igrave" unicode="&#xec;" horiz-adv-x="280" 
d="M-65 887l259 -129l-95 2zM67 0v700h160v-700h-160z" />
    <glyph glyph-name="iacute" unicode="&#xed;" horiz-adv-x="280" 
d="M358 887l-164 -127l-95 -2zM65 0v700h160v-700h-160z" />
    <glyph glyph-name="icircumflex" unicode="&#xee;" horiz-adv-x="280" 
d="M-28 730l170 127l188 -127l-188 65zM61 0v700h160v-700h-160z" />
    <glyph glyph-name="idieresis" unicode="&#xef;" horiz-adv-x="280" 
d="M127 787q0 -21 -15 -35.5t-36 -14.5t-36 14.5t-15 35.5q0 22 15 36.5t36 14.5t36 -14.5t15 -36.5zM268 787q0 -21 -15 -35.5t-36 -14.5t-36 14.5t-15 35.5q0 22 15 36.5t36 14.5t36 -14.5t15 -36.5zM65 0v700h160v-700h-160z" />
    <glyph glyph-name="eth" unicode="&#xf0;" horiz-adv-x="951" 
d="M513 700q99 0 198 -46.5t165 -128.5t66 -175q0 -144 -123.5 -247t-297.5 -103h-240l2 360h-173v18h171q-11 44 -107 159t-121 163h460zM490 13q111 0 175.5 95t64.5 241q0 61 -10.5 108.5t-39.5 92t-77.5 73.5t-128 46.5t-187.5 17.5v-309h176v-18h-174q12 -46 90 -168.5
t98 -178.5h13z" />
    <glyph glyph-name="ntilde" unicode="&#xf1;" horiz-adv-x="788" 
d="M574 853q-3 -5 -8 -13t-22 -25.5t-36 -27t-48 -9t-59 19.5t-61 23t-54 -4t-41.5 -18.5t-28.5 -20.5l-9 -9q3 6 9 15t27.5 29t45 30.5t61 9t76.5 -24.5q3 -2 8.5 -5t22 -8t33 -4.5t40 10.5t44.5 32zM126 1h-13v584l-128 115h245l535 -609l-2 257q0 59 -65.5 141
t-137 139.5t-109.5 71.5h325v-700h-169l-481 571v-570z" />
    <glyph glyph-name="ograve" unicode="&#xf2;" horiz-adv-x="784" 
d="M155 887l259 -129l-95 2zM157 650q118 88 269.5 61.5t246.5 -150.5t78.5 -273.5t-134.5 -236.5q-119 -88 -270 -62.5t-246 149.5q-95 123 -78.5 273t134.5 239zM231 235q48 -63 96.5 -108t97.5 -71.5t98 -26t91 31.5q56 42 60 111.5t-34.5 145.5t-109.5 155
q-47 52 -79.5 85t-73 64.5t-72.5 43t-68 7.5t-70 -29q-56 -41 -62 -108t27.5 -141.5t98.5 -159.5z" />
    <glyph glyph-name="oacute" unicode="&#xf3;" horiz-adv-x="784" 
d="M538 887l-164 -127l-95 -2zM157 650q118 88 269.5 61.5t246.5 -150.5t78.5 -273.5t-134.5 -236.5q-119 -88 -270 -62.5t-246 149.5q-95 123 -78.5 273t134.5 239zM231 235q48 -63 96.5 -108t97.5 -71.5t98 -26t91 31.5q56 42 60 111.5t-34.5 145.5t-109.5 155
q-47 52 -79.5 85t-73 64.5t-72.5 43t-68 7.5t-70 -29q-56 -41 -62 -108t27.5 -141.5t98.5 -159.5z" />
    <glyph glyph-name="ocircumflex" unicode="&#xf4;" horiz-adv-x="784" 
d="M209 730l170 127l188 -127l-188 65zM157 650q118 88 269.5 61.5t246.5 -150.5t78.5 -273.5t-134.5 -236.5q-119 -88 -270 -62.5t-246 149.5q-95 123 -78.5 273t134.5 239zM231 235q48 -63 96.5 -108t97.5 -71.5t98 -26t91 31.5q56 42 60 111.5t-34.5 145.5t-109.5 155
q-47 52 -79.5 85t-73 64.5t-72.5 43t-68 7.5t-70 -29q-56 -41 -62 -108t27.5 -141.5t98.5 -159.5z" />
    <glyph glyph-name="otilde" unicode="&#xf5;" horiz-adv-x="784" 
d="M584 853q-3 -5 -8 -13t-22 -25.5t-36 -27t-48 -9t-59 19.5t-61 23t-54 -4t-41.5 -18.5t-28.5 -20.5l-9 -9q3 6 9 15t27.5 29t45 30.5t61 9t76.5 -24.5q3 -2 8.5 -5t22 -8t33 -4.5t40 10.5t44.5 32zM157 650q118 88 269.5 61.5t246.5 -150.5t78.5 -273.5t-134.5 -236.5
q-119 -88 -270 -62.5t-246 149.5q-95 123 -78.5 273t134.5 239zM231 235q48 -63 96.5 -108t97.5 -71.5t98 -26t91 31.5q56 42 60 111.5t-34.5 145.5t-109.5 155q-47 52 -79.5 85t-73 64.5t-72.5 43t-68 7.5t-70 -29q-56 -41 -62 -108t27.5 -141.5t98.5 -159.5z" />
    <glyph glyph-name="odieresis" unicode="&#xf6;" horiz-adv-x="784" 
d="M298 787q0 -21 -15 -35.5t-36 -14.5t-36 14.5t-15 35.5q0 22 15 36.5t36 14.5t36 -14.5t15 -36.5zM579 787q0 -21 -15 -35.5t-36 -14.5t-36 14.5t-15 35.5q0 22 15 36.5t36 14.5t36 -14.5t15 -36.5zM157 650q118 88 269.5 61.5t246.5 -150.5t78.5 -273.5t-134.5 -236.5
q-119 -88 -270 -62.5t-246 149.5q-95 123 -78.5 273t134.5 239zM231 235q48 -63 96.5 -108t97.5 -71.5t98 -26t91 31.5q56 42 60 111.5t-34.5 145.5t-109.5 155q-47 52 -79.5 85t-73 64.5t-72.5 43t-68 7.5t-70 -29q-56 -41 -62 -108t27.5 -141.5t98.5 -159.5z" />
    <glyph glyph-name="divide" unicode="&#xf7;" 
d="M296 440q-12 0 -20 8t-8 20q0 11 8 19t20 8q10 0 18.5 -8.5t8.5 -18.5q0 -12 -8 -20t-19 -8zM45 297v18h510v-18h-510zM296 147q-12 0 -20 8t-8 20q0 11 8 19t20 8q10 0 18.5 -8t8.5 -19q0 -12 -8 -20t-19 -8z" />
    <glyph glyph-name="oslash" unicode="&#xf8;" horiz-adv-x="773" 
d="M674 559q94 -124 77 -272.5t-134 -235.5q-115 -85 -260.5 -64t-242.5 135l-94 -73l-6 9l93 72l-6 8q-95 123 -78.5 273t134.5 239q116 86 265.5 62t245.5 -144l64 50l6 -9zM231 235q1 -2 4 -5l302 236l-7 7q-47 52 -79.5 85t-73 64.5t-72.5 43t-68 7.5t-70 -29
q-56 -41 -62 -108t27.5 -141.5t98.5 -159.5zM614 61q54 40 59.5 106.5t-29 139.5t-100.5 150l-303 -235q47 -60 94 -102t95 -67t95.5 -23.5t88.5 31.5z" />
    <glyph glyph-name="ugrave" unicode="&#xf9;" horiz-adv-x="861" 
d="M285 887l259 -129l-95 2zM343 700q-68 -52 -119.5 -125.5t-79 -150.5t-29 -153.5t23 -136t85.5 -96t151 -36.5q107 1 175 94t71 234v370h175v-370q0 -146 -114.5 -243t-306.5 -98q-148 -1 -229 95.5t-81 245.5v370h278z" />
    <glyph glyph-name="uacute" unicode="&#xfa;" horiz-adv-x="861" 
d="M618 887l-164 -127l-95 -2zM343 700q-68 -52 -119.5 -125.5t-79 -150.5t-29 -153.5t23 -136t85.5 -96t151 -36.5q107 1 175 94t71 234v370h175v-370q0 -146 -114.5 -243t-306.5 -98q-148 -1 -229 95.5t-81 245.5v370h278z" />
    <glyph glyph-name="ucircumflex" unicode="&#xfb;" horiz-adv-x="861" 
d="M269 730l170 127l188 -127l-188 65zM343 700q-68 -52 -119.5 -125.5t-79 -150.5t-29 -153.5t23 -136t85.5 -96t151 -36.5q107 1 175 94t71 234v370h175v-370q0 -146 -114.5 -243t-306.5 -98q-148 -1 -229 95.5t-81 245.5v370h278z" />
    <glyph glyph-name="udieresis" unicode="&#xfc;" horiz-adv-x="861" 
d="M258 787q0 -21 -15 -35.5t-36 -14.5t-36 14.5t-15 35.5q0 22 15 36.5t36 14.5t36 -14.5t15 -36.5zM739 787q0 -21 -15 -35.5t-36 -14.5t-36 14.5t-15 35.5q0 22 15 36.5t36 14.5t36 -14.5t15 -36.5zM343 700q-68 -52 -119.5 -125.5t-79 -150.5t-29 -153.5t23 -136
t85.5 -96t151 -36.5q107 1 175 94t71 234v370h175v-370q0 -146 -114.5 -243t-306.5 -98q-148 -1 -229 95.5t-81 245.5v370h278z" />
    <glyph glyph-name="yacute" unicode="&#xfd;" horiz-adv-x="817" 
d="M579 887l-164 -127l-95 -2zM491 366l309 334h12l-314 -342v-358h-174v333l-324 367h198z" />
    <glyph glyph-name="thorn" unicode="&#xfe;" horiz-adv-x="773" 
d="M703 363q0 -99 -71 -157.5t-166 -58.5l-272 -1v-146h-174v700h174v-110h229q121 0 200.5 -59.5t79.5 -167.5zM534 360q0 62 -27 107.5t-70 67.5t-85 32t-84 10h-74v-418h98q242 0 242 201z" />
    <glyph glyph-name="ydieresis" unicode="&#xff;" horiz-adv-x="817" 
d="M301 787q0 -21 -15 -35.5t-36 -14.5t-36 14.5t-15 35.5q0 22 15 36.5t36 14.5t36 -14.5t15 -36.5zM582 787q0 -21 -15 -35.5t-36 -14.5t-36 14.5t-15 35.5q0 22 15 36.5t36 14.5t36 -14.5t15 -36.5zM491 366l309 334h12l-314 -342v-358h-174v333l-324 367h198z" />
    <glyph glyph-name="OE" unicode="&#x152;" horiz-adv-x="1410" 
d="M1056 47l299 147l-115 -194h-519v198q-37 -70 -103 -123q-122 -97 -274.5 -85.5t-246.5 125.5q-94 113 -73.5 262t142.5 247t275.5 86.5t246.5 -125.5q17 -20 33 -48v163h489l142 -184l-315 139l-144 40v-334h227v-13h-227v-344zM516 201q62 49 105.5 98t69 98t22.5 97
t-36 88q-27 33 -61 45.5t-68 9t-81 -24.5t-86 -44.5t-98 -63.5q-88 -59 -143 -124.5t-69.5 -132t31.5 -122.5q44 -53 113 -57t143 31t158 102z" />
    <glyph glyph-name="oe" unicode="&#x153;" horiz-adv-x="1393" 
d="M1039 47l299 147l-115 -194h-519v147q-33 -55 -87 -96q-119 -88 -270 -62.5t-246 149.5q-95 123 -78.5 273t134.5 239q118 88 269.5 61.5t246.5 -150.5q15 -19 31 -47v186h489l142 -184l-315 139l-144 40v-334h227v-13h-227v-344zM614 61q56 42 60 111.5t-34.5 145.5
t-109.5 155q-47 52 -79.5 85t-73 64.5t-72.5 43t-68 7.5t-70 -29q-56 -41 -62 -108t27.5 -141.5t98.5 -159.5q48 -63 96.5 -108t97.5 -71.5t98 -26t91 31.5z" />
    <glyph glyph-name="Wcircumflex" unicode="&#x174;" horiz-adv-x="1309" 
d="M439 730l170 127l188 -127l-188 65zM484 0h-78l-376 699h200l298 -570l128 265l-144 305h180l286 -585l308 586h15l-367 -700h-89l-182 378z" />
    <glyph glyph-name="wcircumflex" unicode="&#x175;" horiz-adv-x="1119" 
d="M738 730l-188 65l-170 -65l170 127zM1099 700l-350 -702l-185 352l-175 -352l-368 702h189l268 -496l79 159l-176 337h189l81 -149l74 149h14l-81 -163l180 -333l247 496h14z" />
    <glyph glyph-name="Ycircumflex" unicode="&#x176;" horiz-adv-x="817" 
d="M249 730l170 127l188 -127l-188 65zM491 366l309 334h12l-314 -342v-358h-174v333l-324 367h198z" />
    <glyph glyph-name="ycircumflex" unicode="&#x177;" horiz-adv-x="817" 
d="M211 730l170 127l188 -127l-188 65zM491 366l309 334h12l-314 -342v-358h-174v333l-324 367h198z" />
    <glyph glyph-name="Ydieresis" unicode="&#x178;" horiz-adv-x="817" 
d="M328 787q0 -21 -15 -35.5t-36 -14.5t-36 14.5t-15 35.5q0 22 15 36.5t36 14.5t36 -14.5t15 -36.5zM609 787q0 -21 -15 -35.5t-36 -14.5t-36 14.5t-15 35.5q0 22 15 36.5t36 14.5t36 -14.5t15 -36.5zM491 366l309 334h12l-314 -342v-358h-174v333l-324 367h198z" />
    <glyph glyph-name="Wgrave" unicode="&#x1e80;" horiz-adv-x="1309" 
d="M305 887l259 -129l-95 2zM484 0h-78l-376 699h200l298 -570l128 265l-144 305h180l286 -585l308 586h15l-367 -700h-89l-182 378z" />
    <glyph glyph-name="wgrave" unicode="&#x1e81;" horiz-adv-x="1119" 
d="M504 758l-95 2l-164 127zM1099 700l-350 -702l-185 352l-175 -352l-368 702h189l268 -496l79 159l-176 337h189l81 -149l74 149h14l-81 -163l180 -333l247 496h14z" />
    <glyph glyph-name="Wacute" unicode="&#x1e82;" horiz-adv-x="1309" 
d="M768 887l-164 -127l-95 -2zM484 0h-78l-376 699h200l298 -570l128 265l-144 305h180l286 -585l308 586h15l-367 -700h-89l-182 378z" />
    <glyph glyph-name="wacute" unicode="&#x1e83;" horiz-adv-x="1119" 
d="M638 887l-164 -127l-95 -2zM1099 700l-350 -702l-185 352l-175 -352l-368 702h189l268 -496l79 159l-176 337h189l81 -149l74 149h14l-81 -163l180 -333l247 496h14z" />
    <glyph glyph-name="Wdieresis" unicode="&#x1e84;" horiz-adv-x="1309" 
d="M518 787q0 -21 -15 -35.5t-36 -14.5t-36 14.5t-15 35.5q0 22 15 36.5t36 14.5t36 -14.5t15 -36.5zM799 787q0 -21 -15 -35.5t-36 -14.5t-36 14.5t-15 35.5q0 22 15 36.5t36 14.5t36 -14.5t15 -36.5zM484 0h-78l-376 699h200l298 -570l128 265l-144 305h180l286 -585
l308 586h15l-367 -700h-89l-182 378z" />
    <glyph glyph-name="wdieresis" unicode="&#x1e85;" horiz-adv-x="1119" 
d="M429 737q-21 0 -36 14.5t-15 35.5q0 22 15 36.5t36 14.5t36 -14.5t15 -36.5q0 -21 -15 -35.5t-36 -14.5zM710 737q-21 0 -36 14.5t-15 35.5q0 22 15 36.5t36 14.5t36 -14.5t15 -36.5q0 -21 -15 -35.5t-36 -14.5zM1099 700l-350 -702l-185 352l-175 -352l-368 702h189
l268 -496l79 159l-176 337h189l81 -149l74 149h14l-81 -163l180 -333l247 496h14z" />
    <glyph glyph-name="Ygrave" unicode="&#x1ef2;" horiz-adv-x="817" 
d="M225 887l259 -129l-95 2zM491 366l309 334h12l-314 -342v-358h-174v333l-324 367h198z" />
    <glyph glyph-name="ygrave" unicode="&#x1ef3;" horiz-adv-x="817" 
d="M176 887l259 -129l-95 2zM491 366l309 334h12l-314 -342v-358h-174v333l-324 367h198z" />
    <glyph glyph-name="endash" unicode="&#x2013;" 
d="M45 297v18h510v-18h-510z" />
    <glyph glyph-name="emdash" unicode="&#x2014;" horiz-adv-x="1069" 
d="M45 297v18h979v-18h-979z" />
    <glyph glyph-name="bullet" unicode="&#x2022;" horiz-adv-x="216" 
d="M109 278q-33 0 -56 23t-23 56q0 31 23 54t56 23q30 0 53.5 -23.5t23.5 -53.5q0 -33 -23 -56t-54 -23z" />
    <glyph glyph-name="perthousand" unicode="&#x2030;" horiz-adv-x="1071" 
d="M57 -12l-9 7l585 716l9 -8zM303 661q51 -43 54 -111.5t-44 -122.5q-47 -53 -116.5 -60t-120.5 37q-51 43 -53.5 112t44.5 122t116.5 60t119.5 -37zM258 486q107 119 43 172q-62 53 -182 -64q-52 -50 -64.5 -99.5t23.5 -83.5q64 -55 180 75zM615 294q51 -43 53.5 -112
t-44.5 -122t-116.5 -60t-120.5 36q-50 44 -53 112.5t44 121.5q47 54 116.5 61t120.5 -37zM995 294q51 -43 53.5 -112t-44.5 -122t-116.5 -60t-120.5 36q-50 44 -53 112.5t44 121.5q47 54 116.5 61t120.5 -37zM570 118q33 38 50 67t17 57t-24 49q-62 54 -182 -64
q-52 -50 -64.5 -100t23.5 -83q65 -56 180 74zM950 118q33 38 50 67t17 57t-24 49q-62 54 -182 -64q-52 -50 -64.5 -100t23.5 -83q65 -56 180 74z" />
    <glyph glyph-name="fraction" unicode="&#x2044;" 
d="M561 689l-512 -693l-20 15l512 693z" />
    <glyph glyph-name="trademark" unicode="&#x2122;" horiz-adv-x="1777" 
d="M697 700l30 -205l-222 192h-82v-687h-99v687h-82l-222 -192l30 205h647zM1295 197l348 503h106v-700h-106l-1 675l-339 -489l139 -186h-152l-420 590v-590h-13v603l-83 97h166z" />
    <glyph glyph-name="emptyset" unicode="&#x2205;" 
 />
    <glyph glyph-name="product" unicode="&#x220f;" horiz-adv-x="666" 
d="M633 712v-111h-178v-601h-12v601h-208v-601h-12v601h-190v111h600z" />
    <glyph glyph-name="minus" unicode="&#x2212;" 
d="M45 297v18h510v-18h-510z" />
    <glyph glyph-name="infinity" unicode="&#x221e;" 
 />
    <glyph glyph-name="approxequal" unicode="&#x2248;" 
 />
    <glyph glyph-name="notequal" unicode="&#x2260;" horiz-adv-x="466" 
d="M193 245h243v-18h-259l-71 -79l-14 12l60 67h-122v18h138l110 122h-248v18h264l69 77l14 -12l-58 -65h117v-18h-133z" />
    <glyph glyph-name="lessequal" unicode="&#x2264;" 
 />
    <glyph glyph-name="greaterequal" unicode="&#x2265;" 
 />
    <glyph glyph-name="H.ss01" horiz-adv-x="805" 
d="M566 306h-313l-1 -306h-175v700h176v-392l197 148h264v244h11v-700h-11v451z" />
    <glyph glyph-name="L.ss01" horiz-adv-x="654" 
d="M75 0v700h164v-696h2q131 3 232 113t189 318l-88 -435h-499z" />
    <glyph glyph-name="M.ss01" horiz-adv-x="1008" 
d="M528 321l274 379h176v-700h-176l-1 675l-365 -503l-325 418v-364q0 -61 81 -133.5t198 -92.5h-292v603l-83 97h204z" />
    <glyph glyph-name="G.ss02" horiz-adv-x="760" 
d="M730 88q-4 -4 -12.5 -11t-35.5 -24t-55.5 -30t-71.5 -24t-86 -11q-112 0 -213.5 48t-163.5 131.5t-62 179.5q0 48 13 96t41 93.5t67.5 83t97 62t125.5 32.5t156.5 -7.5t186.5 -55.5l5 -226q-12 21 -35 52t-55 66t-69.5 68t-77 56.5t-77.5 34t-72.5 -3.5t-60 -51
t-40.5 -113.5t-15 -186.5q0 -117 14.5 -191.5t36.5 -105.5t55 -33t63.5 15.5t68 53t63 66t54.5 66.5t36 44h-208v10h327v-184z" />
    <glyph glyph-name="H.ss02" horiz-adv-x="735" 
d="M253 356l-1 -356h-175v700h176v-334h239v334h176v-700h-176v356h-239z" />
    <glyph glyph-name="M.ss02" horiz-adv-x="1148" 
d="M606 197l348 503h166v-700h-166l-1 675l-257 -370q-37 -58 -37.5 -113.5t23.5 -99t71 -92.5h-212l-420 590v-590h-13v603l-83 97h226z" />
    <glyph glyph-name="a.ss01" horiz-adv-x="868" 
d="M357 0h-347l319 562l-84 138h197l387 -699h-199l-294 553l-227 -406z" />
    <glyph glyph-name="h.ss01" horiz-adv-x="964" 
d="M257 348l-1 -348h-176v700h177v-339h417v49q0 136 -252 290h265v-451q0 -37 36 -80.5t94 -94.5t77 -74h-220v348h-417z" />
    <glyph glyph-name="unbenannt" horiz-adv-x="426" 
d="M109 278q-33 0 -56 23t-23 56q0 31 23 54t56 23q30 0 53.5 -23.5t23.5 -53.5q0 -33 -23 -56t-54 -23zM329 -12q-29 0 -49 20t-20 49q0 27 20.5 47t48.5 20q26 0 46.5 -20.5t20.5 -46.5q0 -28 -20 -48.5t-47 -20.5z" />
    <glyph glyph-name="G001" 
 />
    </font>
</defs>
</svg>
